<?xml version="1.0" standalone="no"?>
<!DOCTYPE svg PUBLIC "-//W3C//DTD SVG 20010904//EN"
 "http://www.w3.org/TR/2001/REC-SVG-20010904/DTD/svg10.dtd">
<svg version="1.0" xmlns="http://www.w3.org/2000/svg"
 width="500.000000pt" height="500.000000pt" viewBox="0 0 500.000000 500.000000"
 preserveAspectRatio="xMidYMid meet">
<metadata>
Created by potrace 1.11, written by Peter Selinger 2001-2013
</metadata>
<g transform="translate(0.000000,500.000000) scale(0.100000,-0.100000)"
fill="#000000" stroke="none">
<path d="M0 4690 l0 -309 39 14 c70 24 122 27 197 10 l70 -16 80 34 c43 19
104 46 134 60 30 14 120 53 200 87 80 34 177 77 216 95 135 64 242 79 353 50
51 -13 297 -111 416 -165 210 -96 310 -310 244 -525 -18 -57 -18 -61 -1 -72
76 -53 111 -86 144 -138 50 -76 71 -151 71 -245 -1 -91 -25 -160 -87 -249 -42
-61 -43 -63 -30 -99 7 -20 13 -71 13 -112 1 -134 -38 -223 -144 -325 -67 -66
-71 -73 -67 -107 12 -103 -57 -265 -144 -336 -34 -29 -130 -81 -175 -95 -9 -3
-21 -26 -28 -53 -17 -65 -55 -129 -115 -191 -95 -100 -264 -145 -403 -109 -59
16 -356 135 -478 192 -74 35 -157 89 -305 199 -63 47 -134 99 -157 116 l-43
30 0 -1216 0 -1215 2500 0 2500 0 0 460 c0 253 -2 460 -5 460 -3 0 -123 -93
-267 -206 -144 -113 -282 -216 -308 -229 -86 -43 -171 -57 -269 -44 -79 11
-109 22 -181 67 -70 43 -69 42 -341 387 -176 223 -238 295 -271 314 -34 19
-300 177 -564 336 -19 11 -119 71 -224 134 -105 62 -212 131 -239 152 -141
113 -198 309 -142 490 85 272 422 393 669 241 27 -17 52 -28 55 -25 3 3 -25
44 -63 92 -117 147 -146 226 -138 371 4 71 11 101 36 155 73 154 238 265 398
265 125 0 247 -45 321 -119 22 -21 107 -124 188 -228 82 -103 149 -190 151
-191 1 -2 19 12 38 31 104 104 277 144 417 96 l60 -21 38 25 c59 39 103 55
191 68 163 25 277 -27 413 -190 l37 -45 0 1077 0 1077 -2500 0 -2500 0 0 -310z"/>
<path d="M1100 4495 c-19 -7 -188 -81 -375 -165 -364 -162 -407 -175 -497
-151 -118 31 -153 12 -202 -108 l-26 -64 0 -649 0 -648 112 -83 c62 -45 178
-130 258 -189 164 -122 169 -124 455 -244 186 -78 217 -88 272 -89 52 0 68 5
104 30 135 95 111 295 -43 360 -42 17 -42 18 -28 45 10 18 16 17 118 -26 59
-24 126 -47 149 -51 196 -28 307 220 156 347 -22 18 -86 52 -144 76 -67 27
-105 48 -107 59 -8 38 16 36 128 -10 141 -58 198 -66 266 -36 27 12 59 32 72
44 92 86 89 259 -6 339 -16 13 -82 46 -148 73 -65 26 -121 50 -122 51 -9 6 11
44 23 44 7 0 46 -14 85 -31 105 -44 165 -48 233 -15 43 21 59 36 80 75 47 85
29 194 -40 252 -16 14 -191 92 -389 173 -197 82 -360 150 -362 151 -2 2 10 10
26 18 29 14 36 12 174 -44 188 -78 204 -82 268 -68 151 32 208 219 101 330
-30 32 -73 53 -258 129 -231 94 -264 102 -333 75z"/>
<path d="M3098 3188 c-44 -12 -122 -77 -145 -122 -20 -39 -23 -140 -4 -183 7
-18 175 -239 372 -490 198 -252 359 -461 359 -465 0 -3 -18 -20 -40 -38 l-39
-31 -38 21 c-21 11 -50 28 -65 38 -38 23 -434 262 -594 357 -18 11 -69 42
-112 68 -95 56 -167 75 -228 58 -128 -35 -200 -166 -162 -292 22 -76 67 -112
327 -265 135 -81 264 -158 286 -172 22 -15 52 -33 68 -42 15 -8 130 -76 255
-152 185 -110 235 -145 265 -183 43 -57 41 -61 56 132 14 190 19 197 213 353
86 69 159 128 163 131 3 4 -19 106 -50 228 l-55 222 -310 393 c-271 345 -314
396 -354 415 -55 25 -118 33 -168 19z"/>
<path d="M4548 2860 c-93 -28 -153 -108 -151 -200 2 -51 149 -682 174 -740 25
-62 87 -106 163 -116 115 -16 219 80 219 201 -1 41 -73 354 -160 694 -31 123
-138 193 -245 161z"/>
<path d="M4055 2791 c-59 -26 -101 -80 -114 -143 -11 -50 -8 -68 54 -323 36
-148 71 -291 77 -317 6 -27 15 -48 20 -48 5 0 32 17 61 39 63 47 111 63 182
62 55 0 117 -20 129 -40 19 -30 21 6 5 71 -11 40 -46 185 -79 322 -33 137 -68
264 -76 282 -45 95 -164 139 -259 95z"/>
<path d="M4864 2623 c3 -10 30 -117 60 -238 30 -121 58 -238 64 -260 8 -31 10
4 11 156 l1 196 -62 81 c-61 79 -85 100 -74 65z"/>
<path d="M4249 1997 c-42 -21 -385 -285 -458 -351 -54 -50 -68 -94 -80 -256
-6 -80 -13 -159 -15 -177 -4 -29 14 -56 182 -269 154 -196 195 -242 232 -261
55 -28 139 -30 192 -5 21 9 186 134 368 276 l330 259 0 356 0 356 -21 -43
c-59 -118 -214 -166 -341 -104 l-56 28 -7 -43 c-11 -73 -58 -128 -225 -259
-143 -113 -156 -121 -172 -106 -10 8 -18 18 -18 22 0 4 66 59 148 123 173 135
186 149 207 206 28 80 12 146 -49 207 -65 65 -141 80 -217 41z"/>
</g>
</svg>
